<svg id="python" xmlns="http://www.w3.org/2000/svg" viewBox="0 0 100 100"><title>python</title><g id="stars"><circle cx="32.5" cy="21.642" r="1.5" fill="none" stroke="#f9e4c7" stroke-linecap="round" stroke-linejoin="round"/><path d="M81.905,37.19a1.893,1.893,0,0,1,0-2.475l0.812-.939-0.939.812a1.893,1.893,0,0,1-2.475,0l-0.939-.812,0.812,0.939a1.893,1.893,0,0,1,0,2.475l-0.812.939,0.939-.812a1.893,1.893,0,0,1,2.475,0l0.939,0.812-0.812-.939" transform="translate(0 0)" fill="#f9e4c7" stroke="#f9e4c7" stroke-linecap="round" stroke-linejoin="round"/><path d="M66.218,25.835l0.122-1.673A2.557,2.557,0,0,1,68.7,21.8l1.673-.122L68.7,21.553a2.557,2.557,0,0,1-2.364-2.364l-0.122-1.673L66.1,19.189a2.557,2.557,0,0,1-2.364,2.364l-1.673.122L63.731,21.8A2.557,2.557,0,0,1,66.1,24.162Z" transform="translate(0 0)" fill="#f9e4c7" stroke="#f9e4c7" stroke-linecap="round" stroke-linejoin="round"/><path d="M21.165,39.023l1.618-1.4a3.261,3.261,0,0,1,4.264,0l1.618,1.4-1.4-1.618a3.261,3.261,0,0,1,0-4.264l1.4-1.618-1.618,1.4a3.261,3.261,0,0,1-4.264,0l-1.618-1.4,1.4,1.618a3.261,3.261,0,0,1,0,4.264Z" transform="translate(0 0)" fill="#f9e4c7" stroke="#f9e4c7" stroke-linecap="round" stroke-linejoin="round"/><circle cx="70.167" cy="73.151" r="1.5" fill="none" stroke="#f9e4c7" stroke-linecap="round" stroke-linejoin="round"/><path d="M41.417,75.417L41.3,77.09a2.557,2.557,0,0,1-2.364,2.364l-1.673.122L38.931,79.7A2.557,2.557,0,0,1,41.3,82.063l0.122,1.673,0.122-1.673A2.557,2.557,0,0,1,43.9,79.7l1.673-.122L43.9,79.454a2.557,2.557,0,0,1-2.364-2.364Z" transform="translate(0 0)" fill="#f9e4c7" stroke="#f9e4c7" stroke-linecap="round" stroke-linejoin="round"/><circle cx="25.696" cy="70.181" r="1.5" fill="none" stroke="#f9e4c7" stroke-linecap="round" stroke-linejoin="round"/></g><rect width="100" height="100" fill="none"/><path d="M63.379,28.774a6.082,6.082,0,0,0-3.058-4.1c-2.363-1.424-5.827-2.129-10.459-2.129-4.9,0-8.582.764-10.794,2.241a4.886,4.886,0,0,0-2.256,3.054,27.5,27.5,0,0,0-.047,3.9l0.007,3.183H50.164l-0.007.942L50.15,36.8l-9.83,0c-7.047,0-9.9.014-10.065,0.036a7.556,7.556,0,0,0-4.914,2.72c-1.531,1.829-2.45,4.483-2.745,7.923a33.491,33.491,0,0,0,.027,5.377,17.974,17.974,0,0,0,1.6,6.316,7.846,7.846,0,0,0,4.065,4,7.213,7.213,0,0,0,1.309.354h0c0.212,0.032.746,0.04,2.839,0.042l2.577,0,0.009-3.72a34.512,34.512,0,0,1,.068-4.091,7.987,7.987,0,0,1,2.027-4.48A6.834,6.834,0,0,1,41.35,49.27l0.412-.06,7.412-.017c7.973-.018,7.465-0.009,8.26-0.15A7.208,7.208,0,0,0,62.324,46.1a7.779,7.779,0,0,0,.669-1.36,8.35,8.35,0,0,0,.4-1.94c0.017-.206.028-2.849,0.03-7.054C63.422,29.708,63.418,29,63.379,28.774Zm-18.656,1.4a2.475,2.475,0,0,1-1.632,1.352h0a3.274,3.274,0,0,1-.915.04,2.411,2.411,0,0,1-1.958-1.723,2.94,2.94,0,0,1,0-1.309,2.4,2.4,0,0,1,4.642.063A2.563,2.563,0,0,1,44.722,30.171Z" transform="translate(0 0)" fill="#4587bd" stroke="#224a66" stroke-miterlimit="10" stroke-width="3.3"/><path d="M77.416,45.769c-0.734-5.075-2.939-8.319-6.224-9.157-0.647-.165-0.665-0.166-3.442-0.166h-2.53l-0.015,3.713a35.141,35.141,0,0,1-.074,4.084,8.725,8.725,0,0,1-1.283,3.548,6.621,6.621,0,0,1-4.6,2.9c-0.82.138-.447,0.131-8.347,0.15-6.821.016-7.408,0.021-7.7,0.066-3.63.549-5.837,2.551-6.31,5.724-0.092.614-.1,0.983-0.1,7.647,0,6.158,0,6.706.043,6.958A5.464,5.464,0,0,0,38.431,74.2q2.145,2.144,6.727,2.891a31.409,31.409,0,0,0,3.891.358h0c0.435,0.019,3.008-.009,3.479-0.038a21.811,21.811,0,0,0,6.848-1.286c2.358-.932,3.8-2.4,4.044-4.133,0.02-.143.023-1.23,0.01-3.555l-0.019-3.348H50.054v-1.9l9.825,0c10.544,0,9.969.009,10.65-.127a7.439,7.439,0,0,0,3-1.347c2.064-1.543,3.387-4.171,3.92-7.789a37.252,37.252,0,0,0,.054-3.974V46.347ZM55.285,70.734a2.174,2.174,0,0,1,.234-0.983,2.486,2.486,0,0,1,1.607-1.271,3.029,3.029,0,0,1,1.163.016,2.442,2.442,0,0,1,1.727,1.734,1.994,1.994,0,0,1,.057.594,2.069,2.069,0,0,1-.216,1.029,2.453,2.453,0,0,1-1.686,1.336,3.176,3.176,0,0,1-.988,0,2.431,2.431,0,0,1-1.849-1.812A1.927,1.927,0,0,1,55.285,70.734Z" transform="translate(0 0)" fill="#ffe96a" stroke="#224a66" stroke-miterlimit="10" stroke-width="3.3"/><path d="M63.379,28.774a6.082,6.082,0,0,0-3.058-4.1c-2.363-1.424-5.827-2.129-10.459-2.129-4.9,0-8.582.764-10.794,2.241a4.886,4.886,0,0,0-2.256,3.054,27.5,27.5,0,0,0-.047,3.9l0.007,3.183H50.164l-0.007.942L50.15,36.8l-9.83,0c-7.047,0-9.9.014-10.065,0.036a7.556,7.556,0,0,0-4.914,2.72c-1.531,1.829-2.45,4.483-2.745,7.923a33.491,33.491,0,0,0,.027,5.377,17.974,17.974,0,0,0,1.6,6.316,7.846,7.846,0,0,0,4.065,4,7.213,7.213,0,0,0,1.309.354h0c0.212,0.032.746,0.04,2.839,0.042l2.577,0,0.009-3.72a34.512,34.512,0,0,1,.068-4.091,7.987,7.987,0,0,1,2.027-4.48A6.834,6.834,0,0,1,41.35,49.27l0.412-.06,7.412-.017c7.973-.018,7.465-0.009,8.26-0.15A7.208,7.208,0,0,0,62.324,46.1a7.779,7.779,0,0,0,.669-1.36,8.35,8.35,0,0,0,.4-1.94c0.017-.206.028-2.849,0.03-7.054C63.422,29.708,63.418,29,63.379,28.774Z" transform="translate(0 0)" fill="#3776ab"/><path d="M77.416,45.769c-0.734-5.075-2.939-8.319-6.224-9.157-0.647-.165-0.665-0.166-3.442-0.166h-2.53l-0.015,3.713a35.141,35.141,0,0,1-.074,4.084,8.725,8.725,0,0,1-1.283,3.548,6.621,6.621,0,0,1-4.6,2.9c-0.82.138-.447,0.131-8.347,0.15-6.821.016-7.408,0.021-7.7,0.066-3.63.549-5.837,2.551-6.31,5.724-0.092.614-.1,0.983-0.1,7.647,0,6.158,0,6.706.043,6.958A5.464,5.464,0,0,0,38.431,74.2q2.145,2.144,6.727,2.891a31.409,31.409,0,0,0,3.891.358h0c0.435,0.019,3.008-.009,3.479-0.038a21.811,21.811,0,0,0,6.848-1.286c2.358-.932,3.8-2.4,4.044-4.133,0.02-.143.023-1.23,0.01-3.555l-0.019-3.348H50.054v-1.9l9.825,0c10.544,0,9.969.009,10.65-.127a7.439,7.439,0,0,0,3-1.347c2.064-1.543,3.387-4.171,3.92-7.789a37.252,37.252,0,0,0,.054-3.974V46.347Z" transform="translate(0 0)" fill="#ffd766"/><g opacity="0.6"><path d="M42.113,52c0.292-.044.879-0.049,7.7-0.066,7.9-.019,7.527-0.012,8.347-0.15a6.641,6.641,0,0,0,4.246-2.475,6.9,6.9,0,0,1-3.154,1.383c-0.82.138-.447,0.131-8.347,0.15-6.821.016-7.408,0.021-7.7,0.066a7.5,7.5,0,0,0-5.1,2.716A8.35,8.35,0,0,1,42.113,52Z" transform="translate(0 0)" fill="#fff"/><path d="M77.416,45.769c-0.734-5.075-2.939-8.319-6.224-9.157-0.647-.165-0.665-0.166-3.442-0.166h-2.53l0,1.093h1.442c2.777,0,2.795,0,3.442.166,3.285,0.838,5.49,4.082,6.224,9.157l0.084,0.578v3.608a37.252,37.252,0,0,1-.054,3.974,13.081,13.081,0,0,1-2.507,6.424c1.877-1.571,3.1-4.094,3.6-7.517a37.252,37.252,0,0,0,.054-3.974V46.347Z" transform="translate(0 0)" fill="#fff"/><path d="M63.411,65.089H50.054l1.092,1.093H62.318l0.019,3.348c0.013,2.324.01,3.411-.01,3.555a4.01,4.01,0,0,1-.773,1.83,4.549,4.549,0,0,0,1.866-2.923c0.02-.143.023-1.23,0.01-3.555Z" transform="translate(0 0)" fill="#fff"/></g><g opacity="0.3"><path d="M29.161,37.938c0.169-.022,3.019-0.032,10.065-0.036l9.83,0,1.093-1.092-9.83,0c-7.047,0-9.9.014-10.065,0.036a7.556,7.556,0,0,0-4.914,2.72c-0.008.009-.014,0.02-0.022,0.029A7.482,7.482,0,0,1,29.161,37.938Z" transform="translate(0 0)" fill="#fff"/><path d="M63.379,28.774a6.082,6.082,0,0,0-3.058-4.1c-2.363-1.424-5.827-2.129-10.459-2.129-4.9,0-8.582.764-10.794,2.241a5.987,5.987,0,0,0-1.534,1.44c0.146-.116.279-0.238,0.441-0.347,2.212-1.477,5.894-2.241,10.794-2.241,4.632,0,8.1.705,10.459,2.129a6.082,6.082,0,0,1,3.058,4.1c0.039,0.222.044,0.934,0.042,6.972,0,4.205-.012,6.848-0.03,7.054a8.35,8.35,0,0,1-.4,1.94,7.779,7.779,0,0,1-.669,1.36c-0.081.122-.174,0.235-0.264,0.35A6.143,6.143,0,0,0,62.324,46.1a7.779,7.779,0,0,0,.669-1.36,8.35,8.35,0,0,0,.4-1.94c0.017-.206.028-2.849,0.03-7.054C63.422,29.708,63.418,29,63.379,28.774Z" transform="translate(0 0)" fill="#fff"/><path d="M36.021,52.38a7.987,7.987,0,0,0-2.027,4.48,34.512,34.512,0,0,0-.068,4.091l-0.007,2.625h1.09l0.009-3.72a34.512,34.512,0,0,1,.068-4.091,8.3,8.3,0,0,1,1.65-4.012A6.6,6.6,0,0,0,36.021,52.38Z" transform="translate(0 0)" fill="#fff"/></g><path d="M55.43,70.739a2.042,2.042,0,0,1,.22-0.923,2.334,2.334,0,0,1,1.509-1.194,2.844,2.844,0,0,1,1.092.015,2.293,2.293,0,0,1,1.622,1.628,1.873,1.873,0,0,1,.054.558,1.943,1.943,0,0,1-.2.966,2.3,2.3,0,0,1-1.584,1.254,2.983,2.983,0,0,1-.928,0,2.283,2.283,0,0,1-1.736-1.7A1.81,1.81,0,0,1,55.43,70.739Z" transform="translate(0 0)" fill="#fff" opacity="0.6"/><path d="M44.593,30.113a2.329,2.329,0,0,1-1.535,1.272h0a3.08,3.08,0,0,1-.861.038A2.269,2.269,0,0,1,40.354,29.8a2.766,2.766,0,0,1,0-1.232,2.262,2.262,0,0,1,4.368.059A2.411,2.411,0,0,1,44.593,30.113Z" transform="translate(0 0)" fill="#fff" opacity="0.3"/></svg>